<?xml version="1.0" standalone="no"?>
<!DOCTYPE svg PUBLIC "-//W3C//DTD SVG 20010904//EN"
 "http://www.w3.org/TR/2001/REC-SVG-20010904/DTD/svg10.dtd">
<svg version="1.0" xmlns="http://www.w3.org/2000/svg"
 width="800.000000pt" height="800.000000pt" viewBox="0 0 800.000000 800.000000"
 preserveAspectRatio="xMidYMid meet">
<metadata>
Created by potrace 1.11, written by Peter Selinger 2001-2013
</metadata>
<g transform="translate(0.000000,800.000000) scale(0.100000,-0.100000)"
fill="#000000" stroke="none">
<path d="M2177 7523 c-4 -3 -19 -7 -34 -9 -16 -1 -28 -3 -28 -4 0 -2 -13 -4
-30 -5 -16 -1 -43 -8 -60 -14 -16 -7 -38 -13 -47 -14 -10 -1 -18 -5 -18 -9 0
-4 -9 -5 -20 -3 -11 2 -22 0 -25 -6 -4 -5 -15 -9 -26 -9 -10 0 -19 -4 -19 -10
0 -5 -4 -10 -10 -10 -16 0 -145 -62 -148 -72 -2 -4 -13 -8 -23 -8 -11 0 -18
-4 -15 -9 3 -5 -5 -12 -19 -15 -14 -4 -25 -11 -25 -16 0 -6 -7 -10 -15 -10 -8
0 -15 -4 -15 -10 0 -5 -7 -10 -16 -10 -8 0 -12 -4 -9 -10 3 -5 -3 -10 -15 -10
-12 0 -18 -4 -15 -10 3 -5 1 -10 -6 -10 -7 0 -27 -16 -45 -35 -19 -18 -34 -32
-34 -29 0 3 -25 -20 -55 -51 -30 -31 -55 -61 -55 -66 0 -6 -3 -8 -7 -6 -8 4
-43 -28 -44 -40 0 -5 -14 -23 -30 -40 -16 -18 -27 -33 -24 -33 3 0 -11 -21
-30 -46 -19 -25 -32 -51 -28 -57 3 -7 3 -9 -1 -5 -11 10 -34 -14 -29 -29 3 -7
1 -13 -4 -13 -12 0 -44 -56 -36 -64 3 -3 2 -6 -3 -6 -5 0 -21 -25 -34 -55 -13
-30 -27 -55 -31 -55 -4 0 -10 -7 -13 -16 -4 -10 -2 -13 6 -8 6 4 4 -3 -5 -17
-9 -13 -17 -31 -17 -41 0 -10 -4 -18 -10 -18 -5 0 -10 -9 -10 -19 0 -11 -4
-22 -10 -26 -5 -3 -7 -12 -3 -20 3 -8 0 -15 -5 -15 -6 0 -14 -20 -18 -45 -4
-28 -10 -42 -17 -38 -6 4 -8 0 -4 -9 3 -9 0 -21 -6 -28 -9 -10 -9 -11 0 -6 9
5 8 -4 -2 -29 -9 -19 -15 -37 -15 -40 0 -3 0 -6 -1 -7 -2 -9 -9 -47 -13 -73
-3 -16 -5 -30 -6 -30 -1 0 -4 -16 -7 -35 -2 -19 -8 -39 -13 -44 -5 -5 -5 -17
0 -27 6 -10 6 -20 1 -23 -5 -3 -7 -24 -6 -46 2 -22 0 -40 -4 -40 -4 0 -5 -84
-3 -187 4 -244 5 -263 12 -263 3 0 6 -12 6 -27 2 -24 10 -77 17 -108 1 -5 6
-16 10 -22 5 -8 3 -13 -4 -13 -10 0 -10 -3 -1 -12 15 -15 16 -32 2 -23 -6 3
-10 0 -10 -7 0 -8 -14 -29 -30 -48 -46 -53 -50 -58 -50 -70 0 -5 -4 -10 -10
-10 -5 0 -10 -7 -10 -15 0 -8 -4 -15 -10 -15 -5 0 -10 -7 -10 -15 0 -8 -4 -15
-9 -15 -5 0 -14 -13 -21 -30 -7 -16 -17 -30 -22 -30 -5 0 -6 -4 -3 -10 3 -5 3
-10 -2 -10 -4 0 -21 -26 -36 -57 -15 -32 -32 -65 -37 -73 -19 -31 -59 -120
-54 -120 2 0 -2 -10 -10 -22 -11 -18 -33 -75 -41 -108 -1 -3 -5 -14 -9 -25
-26 -67 -48 -148 -51 -185 -1 -14 -5 -32 -9 -40 -3 -8 -8 -26 -10 -40 -3 -14
-5 -27 -6 -30 -1 -3 -2 -17 -2 -32 -1 -16 -3 -28 -7 -28 -3 0 -6 -17 -6 -38 0
-20 -4 -43 -9 -49 -5 -8 -4 -19 4 -28 9 -10 9 -15 1 -15 -6 0 -11 -5 -11 -11
0 -5 6 -7 12 -3 10 6 10 4 0 -8 -16 -20 -15 -248 2 -248 6 0 5 -4 -3 -9 -12
-8 -12 -12 -2 -24 8 -11 9 -17 1 -22 -6 -3 -7 -12 -3 -18 4 -7 8 -23 9 -37 3
-29 10 -85 19 -150 4 -25 12 -51 19 -59 9 -12 8 -13 -3 -6 -11 6 -10 2 2 -15
13 -19 14 -27 4 -39 -10 -12 -9 -13 1 -7 9 5 13 3 11 -5 -1 -8 3 -27 9 -42 7
-15 11 -31 10 -35 -1 -4 3 -17 10 -29 7 -13 11 -23 8 -23 -3 0 2 -16 10 -35 8
-19 11 -35 7 -35 -5 0 -2 -4 5 -9 7 -4 14 -18 15 -29 1 -12 5 -22 9 -22 4 0 7
-3 6 -7 -1 -5 9 -30 22 -58 13 -27 24 -52 25 -55 12 -36 48 -100 56 -100 6 0
8 -4 5 -8 -3 -5 2 -18 12 -28 9 -11 18 -26 20 -34 2 -8 8 -16 13 -18 5 -2 9
-13 9 -23 0 -11 4 -17 10 -14 5 3 10 -1 10 -9 0 -9 5 -16 10 -16 6 0 10 -7 10
-15 0 -8 4 -15 9 -15 5 0 12 -8 15 -17 3 -10 17 -30 31 -45 14 -16 23 -28 19
-28 -4 0 5 -11 20 -25 14 -13 26 -29 26 -35 0 -6 5 -8 10 -5 6 3 10 2 10 -2 0
-5 16 -26 35 -47 19 -21 35 -42 35 -47 0 -5 5 -9 10 -9 6 0 30 -19 54 -42 63
-63 116 -109 116 -102 0 3 13 -8 29 -25 15 -16 31 -28 34 -24 4 3 9 -2 13 -11
3 -9 12 -16 20 -16 8 0 14 -4 14 -10 0 -5 6 -10 14 -10 8 0 17 -3 19 -7 3 -5
-258 -8 -579 -8 l-584 1 0 -193 0 -193 215 0 215 0 -2 -367 c-3 -347 -4 -366
-21 -369 -10 -1 -27 -10 -38 -20 -10 -9 -19 -13 -19 -9 0 14 -41 -38 -62 -79
-12 -24 -15 -35 -6 -30 10 6 11 5 1 -7 -14 -17 -15 -99 -1 -99 5 0 6 -4 3 -10
-3 -5 -1 -10 5 -10 6 0 9 -4 6 -9 -6 -10 46 -71 62 -71 5 0 12 -5 14 -11 2 -6
16 -12 31 -12 l27 -2 0 -315 0 -315 180 2 c99 1 183 2 188 2 4 1 7 138 7 306
l-1 305 246 -2 245 -3 0 -304 0 -304 660 1 c363 0 669 1 680 1 20 1 20 8 19
306 l0 305 245 -2 246 -3 -1 -302 0 -303 25 -1 c28 -1 364 -1 394 0 16 1 17
22 17 306 l0 305 245 0 245 0 2 -307 3 -306 175 1 c96 0 192 1 213 1 l37 1 0
305 0 305 1371 0 c1350 0 1371 0 1414 20 24 11 49 28 54 38 6 9 11 13 11 7 0
-5 9 7 20 28 11 21 17 43 14 49 -4 7 -3 8 4 4 9 -5 12 10 12 53 0 38 -4 61
-11 61 -6 0 -9 7 -5 15 3 8 1 15 -4 15 -6 0 -10 5 -10 10 0 26 -99 98 -114 83
-3 -4 -6 -2 -6 4 0 6 -47 10 -117 10 -65 1 -125 2 -135 2 -15 1 -16 21 -15
204 l2 202 115 2 c63 1 122 3 130 6 8 2 27 7 43 12 15 4 27 11 27 17 0 5 5 6
10 3 6 -3 13 1 16 9 3 9 13 16 21 16 8 0 12 4 8 9 -3 5 -1 12 4 16 22 13 37
63 35 115 -4 78 -4 78 -34 110 -15 16 -25 32 -22 35 3 3 -2 5 -12 5 -9 0 -26
9 -37 19 -12 11 -30 18 -40 16 -10 -2 -19 -1 -19 3 0 4 -55 7 -122 7 l-123 0
-1 298 c-1 163 -4 300 -7 303 -4 4 -2 15 4 25 5 11 6 19 2 19 -5 0 -15 15 -22
32 -8 18 -24 42 -36 54 -29 29 -83 56 -95 49 -6 -3 -10 -1 -10 4 0 16 -1350
14 -1388 -2 -38 -16 -102 -68 -102 -82 0 -6 -5 -16 -12 -23 -18 -18 -18 -32
-20 -367 l-1 -310 -124 0 c-67 0 -123 -3 -123 -7 0 -5 -5 -8 -11 -8 -5 0 -7 5
-4 11 4 6 -2 5 -14 -3 -12 -7 -21 -16 -21 -20 0 -4 -7 -5 -15 -2 -8 4 -15 1
-15 -4 0 -6 -9 -14 -21 -17 -11 -4 -18 -9 -15 -12 3 -3 -2 -13 -12 -22 -26
-24 -41 -80 -36 -131 6 -68 7 -70 16 -70 4 0 8 -5 8 -11 0 -7 16 -27 35 -46
19 -19 35 -31 35 -28 0 3 9 1 21 -5 33 -18 58 -22 179 -23 l115 -2 1 -202 c1
-199 1 -203 -20 -204 -12 -1 -191 -2 -398 -2 l-378 -2 0 473 c0 352 3 472 12
472 17 0 162 70 169 82 3 5 9 9 13 9 17 -2 24 0 42 17 11 9 37 26 59 37 21 11
53 31 71 45 17 14 42 32 54 40 44 30 156 128 219 191 53 53 120 129 114 129
-2 0 12 15 31 34 19 19 32 37 30 39 -2 2 7 16 20 30 14 15 22 27 19 27 -4 0 2
10 13 23 11 12 26 34 33 49 8 15 18 25 23 22 5 -3 7 -2 6 3 -3 11 33 85 46 94
5 4 5 12 2 18 -4 6 0 11 8 11 9 0 15 3 14 8 -1 4 3 17 10 30 7 12 10 22 6 22
-4 0 0 8 9 18 8 9 15 19 15 22 -2 15 15 50 24 50 6 0 9 3 5 6 -3 4 0 19 9 35
8 16 12 29 9 29 -3 0 2 17 11 38 8 20 17 44 20 52 2 8 13 46 24 84 11 38 17
72 15 77 -3 4 -1 10 5 14 5 3 10 17 10 30 0 13 5 27 10 30 7 4 7 13 0 24 -5
10 -5 22 -1 27 10 10 24 87 22 123 -1 14 5 28 11 33 10 6 10 8 1 8 -9 0 -10 7
-5 23 15 43 4 386 -15 472 -2 11 -5 31 -6 45 -1 14 -6 31 -11 39 -6 10 -5 12
2 7 7 -4 6 4 -3 20 -7 15 -11 32 -9 39 3 7 1 16 -5 19 -6 4 -8 13 -5 21 3 8 2
20 -2 27 -9 13 -9 15 -19 60 -3 15 -10 40 -17 55 -6 16 -12 33 -13 38 0 6 -7
24 -14 40 -7 17 -14 37 -16 46 -2 9 -8 25 -13 35 -15 27 -25 58 -23 67 0 4 -6
10 -14 13 -8 3 -12 10 -9 15 3 5 0 9 -6 9 -6 0 -8 5 -4 11 3 6 3 14 -2 18 -5
3 -20 29 -34 56 -14 28 -29 53 -35 57 -5 4 -7 8 -3 8 4 0 1 8 -7 18 -8 9 -15
21 -15 25 1 4 -5 14 -12 22 -30 34 -38 45 -32 45 4 0 -3 9 -16 20 -13 11 -20
20 -16 20 4 0 1 7 -6 15 -47 52 -90 115 -80 115 6 0 9 6 6 14 -3 8 0 24 6 36
10 18 10 21 -2 15 -10 -6 -11 -5 0 6 6 7 12 28 12 47 0 24 4 31 13 26 9 -5 9
-4 0 6 -7 7 -9 21 -4 34 4 11 7 36 6 54 0 17 4 32 10 32 5 0 4 4 -4 9 -7 5 -9
11 -4 14 12 8 5 472 -8 472 -1 0 -3 9 -4 20 -2 11 -6 34 -9 50 -4 17 -9 41
-11 55 -2 14 -7 36 -10 50 -14 59 -17 76 -18 88 0 6 -5 12 -10 12 -6 0 -8 3
-4 6 3 3 -3 31 -14 61 -10 30 -17 59 -14 63 2 4 -4 15 -15 25 -10 9 -16 23
-13 31 3 8 0 14 -5 14 -6 0 -9 9 -7 20 2 11 0 20 -4 20 -9 0 -24 38 -22 53 1
4 -3 7 -9 7 -6 0 -10 3 -9 8 2 14 -13 52 -21 52 -4 0 -11 12 -14 26 -4 14 -15
38 -25 53 -26 37 -51 79 -53 88 -1 5 -5 13 -10 18 -49 61 -88 116 -88 123 0 5
-10 18 -22 29 -13 11 -32 32 -43 46 -11 13 -23 23 -27 21 -4 -3 -9 4 -13 15
-3 11 -34 44 -68 74 -96 86 -113 100 -177 142 -25 16 -47 33 -50 36 -3 3 -20
12 -37 20 -18 8 -33 17 -33 21 0 5 -9 8 -20 8 -11 0 -20 5 -20 10 0 6 -9 10
-20 10 -11 0 -20 4 -20 10 0 5 -7 7 -15 4 -8 -4 -15 -1 -15 6 0 6 -4 9 -9 6
-5 -4 -11 -3 -13 1 -4 10 -129 53 -152 53 -10 0 -15 3 -13 8 3 4 -14 8 -36 9
-85 5 -107 8 -107 15 0 11 -233 8 -247 -3 -7 -6 -13 -6 -17 0 -4 6 -19 6 -41
0 -19 -6 -40 -7 -45 -4 -6 3 -10 2 -10 -3 0 -5 -15 -9 -33 -9 -18 1 -39 -3
-47 -8 -8 -6 -18 -10 -22 -11 -5 -1 -9 -2 -10 -4 -3 -2 -17 -5 -54 -14 -12 -2
-43 -15 -70 -27 -27 -13 -56 -24 -64 -25 -8 -2 -16 -7 -18 -13 -2 -5 -10 -7
-18 -4 -8 3 -14 1 -14 -4 0 -10 -50 -38 -62 -35 -5 1 -8 -2 -8 -6 0 -5 -11
-14 -25 -20 -14 -7 -31 -17 -38 -22 -44 -38 -61 -50 -67 -50 -3 0 -17 -10 -30
-22 -30 -28 -47 -31 -70 -10 -32 29 -48 41 -97 74 -27 18 -50 36 -51 40 -2 5
-8 6 -13 2 -5 -3 -9 0 -9 6 0 6 -4 8 -10 5 -5 -3 -10 -1 -10 4 0 6 -7 11 -15
11 -8 0 -15 5 -15 11 0 5 -4 7 -10 4 -5 -3 -10 -1 -10 5 0 6 -4 9 -9 6 -5 -3
-14 1 -21 10 -7 8 -19 13 -26 10 -7 -3 -14 0 -16 5 -2 6 -10 11 -18 13 -8 1
-25 7 -36 14 -12 6 -24 8 -28 5 -3 -3 -6 -1 -6 6 0 8 -8 11 -20 8 -11 -3 -20
-1 -20 5 0 5 -4 7 -9 3 -5 -3 -12 -1 -15 4 -5 7 -54 19 -108 26 -10 1 -20 4
-23 5 -3 1 -14 3 -24 4 -11 0 -23 4 -27 9 -13 12 -36 8 -28 -5 6 -10 4 -10 -8
0 -21 17 -221 15 -211 -2 4 -7 1 -7 -7 1 -9 9 -19 9 -33 2 -14 -8 -18 -8 -13
0 8 12 3 15 -7 4z m-272 -5949 c1 -233 -3 -424 -7 -424 -8 0 -9 8 -9 455 0
413 0 409 9 401 4 -4 7 -199 7 -432z m-450 -64 c0 -313 -2 -360 -15 -361 -67
-4 -453 -3 -463 1 -10 4 -13 87 -13 363 l0 357 246 0 245 0 0 -360z m1847 348
c3 -11 2 -632 -1 -693 -1 -19 -8 -20 -244 -19 l-242 0 -1 355 c0 195 1 357 3
362 2 4 111 7 243 7 181 0 239 -3 242 -12z m3423 -501 c0 -179 -2 -201 -17
-206 -13 -5 -773 -6 -823 -2 -7 1 -10 72 -9 204 1 111 2 202 3 203 0 0 191 1
424 1 l422 0 0 -200z m-4350 -724 l1 -111 -243 0 -242 0 -3 41 c-2 23 -2 75 0
115 l4 72 241 -2 242 -3 0 -112z"/>
</g>
</svg>
